<?xml version="1.0" encoding="UTF-8"?>
<svg version="1.1" xmlns="http://www.w3.org/2000/svg" width="500" height="500">
<path d="M0 0 C0.99435059 0.21430664 1.98870117 0.42861328 3.01318359 0.64941406 C44.47371039 9.9258778 83.0180337 30.5334623 113.31396484 60.34472656 C114.92997251 61.93125016 116.56539761 63.49475495 118.20703125 65.0546875 C125.5819933 72.14082513 131.88943533 79.81225421 138 88 C138.41459473 88.54317871 138.82918945 89.08635742 139.25634766 89.64599609 C160.6189465 117.66376841 174.06937379 150.61368179 181 185 C181.16516113 185.78697266 181.33032227 186.57394531 181.50048828 187.38476562 C187.17565851 215.6256334 186.05993859 247.94626601 180 276 C179.67854004 277.49152588 179.67854004 277.49152588 179.35058594 279.01318359 C167.68630813 331.14588374 137.1516068 381.20881556 93.63867188 412.80566406 C91.99679738 414.00233421 90.38083212 415.22858707 88.765625 416.4609375 C61.16889951 437.20039397 28.67805679 450.21212519 -5 457 C-5.78697266 457.16516113 -6.57394531 457.33032227 -7.38476562 457.50048828 C-35.6256334 463.17565851 -67.94626601 462.05993859 -96 456 C-97.49152588 455.67854004 -97.49152588 455.67854004 -99.01318359 455.35058594 C-146.51862071 444.7216215 -186.12815615 419.62631279 -219.828125 385.109375 C-222.01121971 382.86123339 -222.01121971 382.86123339 -225 381 C-225 380.34 -225 379.68 -225 379 C-225.87197381 377.94073604 -226.80154138 376.92886508 -227.75 375.9375 C-253.65389403 346.85425479 -269.37990737 308.80710749 -277 271 C-277.16516113 270.21302734 -277.33032227 269.42605469 -277.50048828 268.61523438 C-283.17565851 240.3743666 -282.05993859 208.05373399 -276 180 C-275.78569336 179.00564941 -275.57138672 178.01129883 -275.35058594 176.98681641 C-267.22435807 140.66719098 -250.32878907 109.42862275 -228 80 C-227.48501953 79.25927246 -226.97003906 78.51854492 -226.43945312 77.75537109 C-225.96443359 77.17609863 -225.48941406 76.59682617 -225 76 C-224.34 76 -223.68 76 -223 76 C-222.74959961 75.42580322 -222.49919922 74.85160645 -222.24121094 74.26000977 C-219.80098378 69.81681881 -215.8207153 66.48478496 -212.25 62.9375 C-211.39253174 62.08422119 -210.53506348 61.23094238 -209.65161133 60.35180664 C-203.31653005 54.12785677 -196.82184159 48.4103832 -189.63867188 43.19433594 C-187.99679738 41.99766579 -186.38083212 40.77141293 -184.765625 39.5390625 C-157.16889951 18.79960603 -124.67805679 5.78787481 -91 -1 C-90.21302734 -1.16516113 -89.42605469 -1.33032227 -88.61523438 -1.50048828 C-60.3743666 -7.17565851 -28.05373399 -6.05993859 0 0 Z " fill="#59A7F6" transform="translate(298,22)"/>
<path d="M0 0 C10.03323056 8.31922034 16.48176107 20.31728504 19 33 C20.57847675 51.66640534 15.91947733 66.92073599 4.25 81.625 C2.27695505 83.70765855 0.38268465 85.41154356 -2 87 C-0.845 87.433125 0.31 87.86625 1.5 88.3125 C2.23605469 88.5909375 2.97210938 88.869375 3.73046875 89.15625 C5.12251583 89.67377525 6.52002601 90.17720967 7.92578125 90.65625 C16.81750014 93.74902179 26.1301676 98.46480127 33 105 C33 105.66 33 106.32 33 107 C33.99 107.33 34.98 107.66 36 108 C47.07999056 120.76036827 50.3390939 134.71404987 50.1953125 151.12890625 C50.1924826 152.35915024 50.18965271 153.58939423 50.18673706 154.85691833 C50.17560547 158.7588808 50.15051358 162.66060774 50.125 166.5625 C50.11382534 169.21939768 50.1058369 171.87629315 50.09765625 174.53320312 C50.07568912 181.02221481 50.04228177 187.51109057 50 194 C50.88203598 193.99000725 50.88203598 193.99000725 51.78189087 193.97981262 C57.91394573 193.91333116 64.04589782 193.86814623 70.17822266 193.83520508 C72.46537435 193.82013884 74.75249725 193.79968203 77.03955078 193.77368164 C80.33112707 193.73720394 83.62232062 193.72025166 86.9140625 193.70703125 C87.93303619 193.69154739 88.95200989 193.67606354 90.00186157 193.66011047 C95.37227412 193.65884359 99.49850966 193.73154153 104 197 C109.31052867 202.40796957 108.57941581 208.72311739 108.53125 215.84375 C108.5350769 217.08620483 108.53890381 218.32865967 108.54284668 219.60876465 C108.54625856 222.90122722 108.53021564 226.1929289 108.5078125 229.48529053 C108.50000615 231.4984142 108.50778617 233.51084044 108.52148438 235.52392578 C108.54622293 239.40169487 108.54319411 243.27843763 108.53125 247.15625 C108.53934692 248.35326538 108.54744385 249.55028076 108.55578613 250.78356934 C108.43688913 261.35780494 108.43688913 261.35780494 104 266 C99.34942245 270.24123304 93.50254928 269.3789271 87.57421875 269.29296875 C86.47149124 269.28872391 85.36876373 269.28447906 84.23262024 269.28010559 C80.71732977 269.26333905 77.20261664 269.22568951 73.6875 269.1875 C71.30144058 269.17245059 68.91537216 269.15876264 66.52929688 269.14648438 C60.68600158 269.11344212 54.84304204 269.06326236 49 269 C48.98065903 269.71911057 48.96131805 270.43822113 48.94139099 271.17912292 C48.55743807 285.19234674 47.73291879 299.05489947 46.22729492 312.99462891 C45.44633781 320.29824105 44.77765199 327.59270068 44.2421875 334.91796875 C44.14848373 336.1761718 44.14848373 336.1761718 44.05288696 337.45979309 C43.80559242 340.78936441 43.55855264 344.11869161 43.33721924 347.45010376 C43.18365824 349.75932514 43.01491817 352.06702686 42.84375 354.375 C42.80313446 355.05809738 42.76251892 355.74119476 42.72067261 356.44499207 C42.27167673 362.20344739 40.76760807 366.36496253 36.5 370.3125 C32.73323603 372.85506568 29.92376941 373.1281734 25.48529053 373.14717102 C23.76517006 373.15790398 23.76517006 373.15790398 22.01029968 373.16885376 C20.75103165 373.17154266 19.49176361 373.17423157 18.19433594 373.17700195 C16.85551274 373.1832681 15.51669127 373.18991503 14.1778717 373.19691467 C9.78005175 373.21794051 5.38223152 373.22831604 0.984375 373.23828125 C-0.53074919 373.24232943 -2.04587319 373.24644637 -3.56099701 373.25063133 C-10.67996614 373.26968019 -17.79892492 373.28391155 -24.91791463 373.2922433 C-33.12982979 373.30201335 -41.34147524 373.32832787 -49.55329537 373.36874419 C-55.90415811 373.39892644 -62.25494363 373.41371419 -68.60587668 373.41702431 C-72.39728755 373.41937252 -76.18841017 373.42830259 -79.97974396 373.45348549 C-83.54867905 373.47680831 -87.11713699 373.48098292 -90.68612862 373.47072411 C-92.61352251 373.46999464 -94.5408924 373.48905656 -96.46818542 373.50878906 C-103.19512565 373.46845264 -107.5742644 373.11732627 -113 369 C-116.15564967 365.16136816 -116.64788585 361.19275421 -117.09375 356.37890625 C-117.17137573 355.63766006 -117.24900146 354.89641388 -117.32897949 354.13270569 C-118.21526307 345.41517259 -118.86336534 336.67610319 -119.5 327.9375 C-119.75495124 324.49858093 -120.01207522 321.05982611 -120.26953125 317.62109375 C-120.33175369 316.78577118 -120.39397614 315.95044861 -120.45808411 315.08981323 C-120.81922331 310.27682825 -121.20917582 305.46780514 -121.63671875 300.66015625 C-121.73082031 299.59869385 -121.82492188 298.53723145 -121.921875 297.44360352 C-122.08954537 295.58551374 -122.26206926 293.72784967 -122.44140625 291.87084961 C-123.12491693 284.24690662 -123.07501575 276.64775987 -123 269 C-123.62560822 269.00888245 -124.25121643 269.01776489 -124.89578247 269.0269165 C-131.4170822 269.11552695 -137.93821041 269.1757913 -144.45996094 269.21972656 C-146.89264881 269.23982071 -149.32528851 269.26710088 -151.7578125 269.30175781 C-155.25793355 269.3503706 -158.75741502 269.37299139 -162.2578125 269.390625 C-163.34240753 269.41127014 -164.42700256 269.43191528 -165.54446411 269.45318604 C-171.50773808 269.45495131 -175.4296462 269.26202545 -180 265 C-182.5474246 261.39992573 -183.37528822 258.96489654 -183.37231445 254.57055664 C-183.37854324 253.50917984 -183.38477203 252.44780304 -183.39118958 251.35426331 C-183.37737495 249.64943031 -183.37737495 249.64943031 -183.36328125 247.91015625 C-183.36377975 246.7328746 -183.36427826 245.55559296 -183.36479187 244.34263611 C-183.36245365 241.85544139 -183.35274007 239.36824421 -183.33618164 236.88110352 C-183.31260868 233.08002482 -183.31562072 229.27964877 -183.32226562 225.47851562 C-183.31668794 223.05989166 -183.30957749 220.64127065 -183.30078125 218.22265625 C-183.30169266 217.08812515 -183.30260406 215.95359406 -183.30354309 214.78468323 C-183.19325166 202.46740811 -183.19325166 202.46740811 -178.5 197.1875 C-175.10812391 194.21960842 -173.58202117 193.87542206 -169.18310547 193.88647461 C-168.18221893 193.88655014 -167.1813324 193.88662567 -166.15011597 193.88670349 C-165.06674957 193.89186478 -163.98338318 193.89702606 -162.8671875 193.90234375 C-161.76021515 193.9037587 -160.6532428 193.90517365 -159.51272583 193.90663147 C-155.96679007 193.91224228 -152.42091677 193.92479663 -148.875 193.9375 C-146.47526133 193.94251361 -144.07552167 193.94707675 -141.67578125 193.95117188 C-135.78383275 193.96221522 -129.89192084 193.9789639 -124 194 C-124.00888245 193.34426498 -124.01776489 192.68852997 -124.0269165 192.01292419 C-124.11619909 185.11718567 -124.17606607 178.22161433 -124.21972656 171.32543945 C-124.23970027 168.76026731 -124.26688877 166.19513986 -124.30175781 163.63012695 C-124.60807429 140.49872788 -123.44822603 122.93232374 -106.875 105.1875 C-97.38985416 96.20019331 -86.60452228 91.18253719 -74 88 C-73.77221789 85.76986008 -73.77221789 85.76986008 -75.94140625 83.92578125 C-77.23884766 82.63220703 -77.23884766 82.63220703 -78.5625 81.3125 C-90.11969169 69.20251944 -93.655687 54.04648366 -93.3125 37.7734375 C-92.59165488 22.60565474 -84.68678189 10.30511111 -74 0 C-52.50517084 -18.41390365 -21.86913739 -16.64305677 0 0 Z " fill="#FBFDFE" transform="translate(287,69)"/>
<path d="M0 0 C83.82 0 167.64 0 254 0 C254 12.21 254 24.42 254 37 C248.90691406 37.05607422 248.90691406 37.05607422 243.7109375 37.11328125 C240.41448607 37.15952149 237.11814705 37.21074619 233.82177734 37.26245117 C231.53473774 37.29566006 229.24761697 37.32370451 226.96044922 37.34643555 C223.66859422 37.3800551 220.37748028 37.43237624 217.0859375 37.48828125 C216.06696381 37.49467117 215.04799011 37.5010611 213.99813843 37.50764465 C208.66062996 37.61763609 204.49315916 37.79305052 200 41 C196.59910839 45.04774046 196.33822496 49.46580256 195.9375 54.55859375 C195.86107269 55.40336273 195.78464539 56.24813171 195.7059021 57.11849976 C195.45839999 59.8905801 195.22909246 62.66384276 195 65.4375 C194.83122838 67.36621622 194.66145751 69.29484525 194.49072266 71.22338867 C193.65652169 80.74617048 192.89124161 90.27438631 192.1484375 99.8046875 C192.08190979 100.65686356 192.01538208 101.50903961 191.94683838 102.38703918 C191.63476432 106.40314197 191.32972349 110.4195449 191.0390625 114.43725586 C190.9836026 115.17996735 190.9281427 115.92267883 190.8710022 116.68789673 C190.72378452 118.65993994 190.58115517 120.63232426 190.43896484 122.60473633 C189.82427154 128.75953251 188.87474984 134.87675114 188 141 C147.74 141 107.48 141 66 141 C63.7513926 124.13544449 63.7513926 124.13544449 63.25390625 117.671875 C63.19830536 116.96631973 63.14270447 116.26076447 63.0854187 115.53382874 C62.96806156 114.04015254 62.85243042 112.54633977 62.73849487 111.05239868 C62.55724899 108.68130529 62.37033975 106.31071635 62.18188477 103.94018555 C61.91859005 100.62802065 61.65644372 97.31576955 61.39550781 94.00341797 C60.81864009 86.6952985 60.23344578 79.38795867 59.62496948 72.08239746 C59.50157769 70.58835852 59.38036431 69.09413781 59.26150513 67.59973145 C58.870122 53.47081397 58.870122 53.47081397 53.625 40.9375 C49.87419937 38.16905191 46.81642085 37.88095416 42.23144531 37.79467773 C41.29077209 37.77473251 40.35009888 37.75478729 39.38092041 37.73423767 C38.37349792 37.71752518 37.36607544 37.70081268 36.328125 37.68359375 C35.29057068 37.66281265 34.25301636 37.64203156 33.184021 37.62062073 C29.87274742 37.55528592 26.56139518 37.49631483 23.25 37.4375 C21.00389815 37.39429951 18.75780422 37.35068473 16.51171875 37.30664062 C11.00789193 37.1988421 5.50400457 37.09964877 0 37 C0 24.79 0 12.58 0 0 Z " fill="#5AA7F6" transform="translate(123,282)"/>
<path d="M0 0 C3.00282021 2.56533797 4.30623109 5.4286164 5.92578125 8.99609375 C6.47556641 10.19556641 7.02535156 11.39503906 7.59179688 12.63085938 C8.1657281 13.8995752 8.73929437 15.16845619 9.3125 16.4375 C10.4305044 18.89594744 11.55233765 21.35262764 12.67578125 23.80859375 C13.0889283 24.7138102 13.0889283 24.7138102 13.51042175 25.63731384 C15.80133153 30.63044944 18.2313838 35.54498269 20.72119141 40.44140625 C21.53978802 42.07922459 22.32906039 43.7322375 23.07958984 45.40234375 C24.45760824 48.43083525 25.7544909 50.76851999 28.1875 53.0625 C32.20055887 54.40018629 35.94475665 54.19986601 40 53 C42.32368417 50.99872841 43.5762588 49.14220798 44.76171875 46.33203125 C45.07181885 45.61192871 45.38191895 44.89182617 45.70141602 44.14990234 C46.02682373 43.37855957 46.35223145 42.6072168 46.6875 41.8125 C49.31227956 35.73823673 52.04819513 29.76582558 55.0625 23.875 C59.04988168 16.06067683 62.56583217 8.0702944 66 0 C79.10677022 3.24115359 89.9333957 9.08420527 97.60546875 20.328125 C108.48386158 41.17076 102 64.7487223 102 88 C57.12 88 12.24 88 -34 88 C-34 24.22013652 -34 24.22013652 -23 12 C-16.29460229 5.92394849 -8.47626969 2.88299455 0 0 Z " fill="#59A7F6" transform="translate(216,175)"/>
<path d="M0 0 C6.77039942 5.40435417 12.41391903 12.37536595 13.65234375 21.1171875 C14.66612399 34.20069103 14.19734615 44.64499842 5.53515625 55.046875 C-2.06515925 63.40406839 -10.09844079 67.59681422 -21.5 68.23828125 C-32.02470048 68.54412725 -42.2649039 65.20246946 -50.09765625 57.9921875 C-59.06763759 48.29950624 -60.84537377 38.06079385 -60.625 25.359375 C-60.2392342 16.64989644 -56.23992366 9.41581818 -50.34765625 3.1171875 C-36.14620998 -9.63808297 -15.70503399 -10.6168673 0 0 Z " fill="#5AA7F6" transform="translate(273.34765625,81.8828125)"/>
<path d="M0 0 C9.9 0 19.8 0 30 0 C28.21354564 5.35936309 26.56566015 10.25834012 24.30078125 15.34765625 C23.81416016 16.44658203 23.32753906 17.54550781 22.82617188 18.67773438 C22.32666016 19.79470703 21.82714844 20.91167969 21.3125 22.0625 C20.80138672 23.21427734 20.29027344 24.36605469 19.76367188 25.55273438 C18.51278694 28.37014812 17.25815677 31.18582798 16 34 C15.34 34 14.68 34 14 34 C13.47212891 32.61941406 13.47212891 32.61941406 12.93359375 31.2109375 C9.83570434 23.23097827 6.41536502 15.59466487 2.41796875 8.0234375 C1 5 1 5 0 0 Z " fill="#5CA8F6" transform="translate(235,168)"/>
<path d="M0 0 C0 3 0 3 0 3 Z " fill="#DFDFDF" transform="translate(428,474)"/>
<path d="M0 0 C0 3 0 3 0 3 Z " fill="#DFDFDF" transform="translate(428,40)"/>
<path d="M0 0 C0 3 0 3 0 3 Z " fill="#FFFFFF" transform="translate(428,9)"/>
<path d="M0 0 C0.33 0.66 0.66 1.32 1 2 C0.34 1.67 -0.32 1.34 -1 1 C-0.67 0.67 -0.34 0.34 0 0 Z " fill="#AAAAAA" transform="translate(428,495)"/>
<path d="M0 0 C0.66 0 1.32 0 2 0 C1.67 0.66 1.34 1.32 1 2 C0.67 1.34 0.34 0.68 0 0 Z " fill="#FFFFFF" transform="translate(427,491)"/>
<path d="M0 0 C0.99 0.495 0.99 0.495 2 1 C1.01 1.495 1.01 1.495 0 2 C0 1.34 0 0.68 0 0 Z " fill="#AAAAFF" transform="translate(366,475)"/>
<path d="M0 0 C0.66 0.66 1.32 1.32 2 2 C1.34 2 0.68 2 0 2 C0 1.34 0 0.68 0 0 Z " fill="#555555" transform="translate(73,438)"/>
<path d="M0 0 C0.33 0.66 0.66 1.32 1 2 C0.34 1.67 -0.32 1.34 -1 1 C-0.67 0.67 -0.34 0.34 0 0 Z " fill="#FFFFFF" transform="translate(428,97)"/>
<path d="M0 0 C0.66 0 1.32 0 2 0 C1.67 0.66 1.34 1.32 1 2 C0.67 1.34 0.34 0.68 0 0 Z " fill="#AAAAAA" transform="translate(427,88)"/>
<path d="M0 0 C0.66 0.66 1.32 1.32 2 2 C1.34 2 0.68 2 0 2 C0 1.34 0 0.68 0 0 Z " fill="#000000" transform="translate(73,66)"/>
<path d="M0 0 C0.66 0 1.32 0 2 0 C1.67 0.66 1.34 1.32 1 2 C0.67 1.34 0.34 0.68 0 0 Z " fill="#FFFFFF" transform="translate(427,62)"/>
<path d="M0 0 C0.99 0.495 0.99 0.495 2 1 C1.01 1.495 1.01 1.495 0 2 C0 1.34 0 0.68 0 0 Z " fill="#AAAAAA" transform="translate(397,35)"/>
<path d="M0 0 C0.66 0 1.32 0 2 0 C1.67 0.66 1.34 1.32 1 2 C0.67 1.34 0.34 0.68 0 0 Z " fill="#AAAAAA" transform="translate(427,26)"/>
<path d="M0 0 C0.99 0.495 0.99 0.495 2 1 C1.01 1.495 1.01 1.495 0 2 C0 1.34 0 0.68 0 0 Z " fill="#555555" transform="translate(397,14)"/>
<path d="M0 0 C0.99 0.495 0.99 0.495 2 1 C1.01 1.495 1.01 1.495 0 2 C0 1.34 0 0.68 0 0 Z " fill="#AAAAAA" transform="translate(366,10)"/>
<path d="M0 0 C2 1 2 1 2 1 Z " fill="#7F7F7F" transform="translate(366,496)"/>
<path d="M0 0 C2 1 2 1 2 1 Z " fill="#007F7F" transform="translate(73,496)"/>
<path d="M0 0 C2 1 2 1 2 1 Z " fill="#40407F" transform="translate(366,491)"/>
<path d="" fill="#7F7F7F" transform="translate(0,0)"/>
<path d="M0 0 C2 1 2 1 2 1 Z " fill="#7F7F7F" transform="translate(397,479)"/>
<path d="M0 0 C2 1 2 1 2 1 Z " fill="#7F7F7F" transform="translate(397,474)"/>
<path d="M0 0 C2 1 2 1 2 1 Z " fill="#7F7FFF" transform="translate(366,470)"/>
<path d="M0 0 C2 1 2 1 2 1 Z " fill="#000000" transform="translate(73,470)"/>
<path d="M0 0 C2 1 2 1 2 1 Z " fill="#007F7F" transform="translate(73,465)"/>
<path d="M0 0 C2 1 2 1 2 1 Z " fill="#7F7F7F" transform="translate(427,460)"/>
<path d="M0 0 C2 1 2 1 2 1 Z " fill="#7FFFFF" transform="translate(366,460)"/>
<path d="M0 0 C2 1 2 1 2 1 Z " fill="#7F7FFF" transform="translate(427,429)"/>
<path d="" fill="#FFFFFF" transform="translate(0,0)"/>
<path d="M0 0 C2 1 2 1 2 1 Z " fill="#FFFFFF" transform="translate(73,408)"/>
<path d="M0 0 C2 1 2 1 2 1 Z " fill="#FFFFFF" transform="translate(427,403)"/>
<path d="M0 0 C2 1 2 1 2 1 Z " fill="#00FFFF" transform="translate(73,93)"/>
<path d="M0 0 C2 1 2 1 2 1 Z " fill="#7F7F7F" transform="translate(397,66)"/>
<path d="M0 0 C2 1 2 1 2 1 Z " fill="#00FFFF" transform="translate(73,62)"/>
<path d="M0 0 C2 1 2 1 2 1 Z " fill="#FFFFFF" transform="translate(427,57)"/>
<path d="" fill="#FFFFFF" transform="translate(0,0)"/>
<path d="M0 0 C2 1 2 1 2 1 Z " fill="#7F7F7F" transform="translate(397,45)"/>
<path d="M0 0 C2 1 2 1 2 1 Z " fill="#00FFFF" transform="translate(73,36)"/>
<path d="M0 0 C2 1 2 1 2 1 Z " fill="#000000" transform="translate(73,31)"/>
<path d="M0 0 C2 1 2 1 2 1 Z " fill="#7F7F7F" transform="translate(366,26)"/>
<path d="M0 0 C2 1 2 1 2 1 Z " fill="#7F7F7F" transform="translate(427,21)"/>
<path d="M0 0 C2 1 2 1 2 1 Z " fill="#7F7F7F" transform="translate(366,21)"/>
<path d="M0 0 C2 1 2 1 2 1 Z " fill="#0000FF" transform="translate(73,10)"/>
<path d="M0 0 C2 1 2 1 2 1 Z " fill="#000000" transform="translate(73,5)"/>
<path d="M0 0 C2 1 2 1 2 1 Z " fill="#FFFFFF" transform="translate(366,0)"/>
<path d="M0 0 C2 1 2 1 2 1 Z " fill="#000000" transform="translate(73,0)"/>
<path d="" fill="#FFFFFF" transform="translate(0,0)"/>
<path d="" fill="#FFFFFF" transform="translate(0,0)"/>
<path d="" fill="#FFFFFF" transform="translate(0,0)"/>
<path d="" fill="#000000" transform="translate(0,0)"/>
<path d="" fill="#FFFFFF" transform="translate(0,0)"/>
<path d="" fill="#000000" transform="translate(0,0)"/>
<path d="" fill="#000000" transform="translate(0,0)"/>
<path d="" fill="#0000FF" transform="translate(0,0)"/>
<path d="" fill="#FFFFFF" transform="translate(0,0)"/>
<path d="" fill="#000000" transform="translate(0,0)"/>
<path d="" fill="#000000" transform="translate(0,0)"/>
<path d="" fill="#000000" transform="translate(0,0)"/>
<path d="" fill="#000000" transform="translate(0,0)"/>
<path d="" fill="#FFFFFF" transform="translate(0,0)"/>
<path d="" fill="#FFFFFF" transform="translate(0,0)"/>
<path d="" fill="#FFFFFF" transform="translate(0,0)"/>
<path d="" fill="#FFFFFF" transform="translate(0,0)"/>
<path d="" fill="#FFFFFF" transform="translate(0,0)"/>
<path d="" fill="#FFFFFF" transform="translate(0,0)"/>
<path d="" fill="#FFFFFF" transform="translate(0,0)"/>
<path d="" fill="#FFFFFF" transform="translate(0,0)"/>
<path d="" fill="#0000FF" transform="translate(0,0)"/>
<path d="" fill="#000000" transform="translate(0,0)"/>
<path d="" fill="#FFFFFF" transform="translate(0,0)"/>
<path d="" fill="#FFFFFF" transform="translate(0,0)"/>
<path d="" fill="#808080" transform="translate(0,0)"/>
<path d="" fill="#FFFFFF" transform="translate(0,0)"/>
<path d="" fill="#FFFFFF" transform="translate(0,0)"/>
<path d="" fill="#FFFFFF" transform="translate(0,0)"/>
<path d="" fill="#FFFFFF" transform="translate(0,0)"/>
<path d="" fill="#FFFFFF" transform="translate(0,0)"/>
<path d="" fill="#FFFFFF" transform="translate(0,0)"/>
<path d="" fill="#FFFFFF" transform="translate(0,0)"/>
<path d="" fill="#FFFFFF" transform="translate(0,0)"/>
<path d="" fill="#FFFFFF" transform="translate(0,0)"/>
<path d="" fill="#FFFFFF" transform="translate(0,0)"/>
<path d="" fill="#000000" transform="translate(0,0)"/>
<path d="" fill="#FFFFFF" transform="translate(0,0)"/>
<path d="" fill="#FFFFFF" transform="translate(0,0)"/>
<path d="" fill="#FFFFFF" transform="translate(0,0)"/>
<path d="" fill="#FFFFFF" transform="translate(0,0)"/>
<path d="" fill="#000000" transform="translate(0,0)"/>
<path d="" fill="#FFFFFF" transform="translate(0,0)"/>
<path d="" fill="#FFFFFF" transform="translate(0,0)"/>
<path d="" fill="#FFFFFF" transform="translate(0,0)"/>
<path d="" fill="#FFFFFF" transform="translate(0,0)"/>
<path d="" fill="#FFFFFF" transform="translate(0,0)"/>
<path d="" fill="#FFFFFF" transform="translate(0,0)"/>
<path d="" fill="#000000" transform="translate(0,0)"/>
<path d="" fill="#000000" transform="translate(0,0)"/>
<path d="" fill="#000000" transform="translate(0,0)"/>
<path d="" fill="#000000" transform="translate(0,0)"/>
<path d="" fill="#000000" transform="translate(0,0)"/>
<path d="" fill="#000000" transform="translate(0,0)"/>
<path d="" fill="#0000FF" transform="translate(0,0)"/>
<path d="" fill="#FFFFFF" transform="translate(0,0)"/>
<path d="" fill="#FFFFFF" transform="translate(0,0)"/>
<path d="" fill="#FFFFFF" transform="translate(0,0)"/>
<path d="" fill="#FFFFFF" transform="translate(0,0)"/>
<path d="" fill="#FFFFFF" transform="translate(0,0)"/>
<path d="" fill="#808080" transform="translate(0,0)"/>
<path d="" fill="#FFFFFF" transform="translate(0,0)"/>
<path d="" fill="#FFFFFF" transform="translate(0,0)"/>
<path d="" fill="#0000FF" transform="translate(0,0)"/>
<path d="" fill="#000000" transform="translate(0,0)"/>
<path d="" fill="#FFFFFF" transform="translate(0,0)"/>
<path d="" fill="#FFFFFF" transform="translate(0,0)"/>
<path d="" fill="#FFFFFF" transform="translate(0,0)"/>
<path d="" fill="#FFFFFF" transform="translate(0,0)"/>
<path d="" fill="#FFFFFF" transform="translate(0,0)"/>
<path d="" fill="#FFFFFF" transform="translate(0,0)"/>
<path d="" fill="#FFFFFF" transform="translate(0,0)"/>
<path d="" fill="#FFFFFF" transform="translate(0,0)"/>
<path d="" fill="#FFFFFF" transform="translate(0,0)"/>
<path d="" fill="#FFFFFF" transform="translate(0,0)"/>
<path d="" fill="#FFFFFF" transform="translate(0,0)"/>
<path d="" fill="#000000" transform="translate(0,0)"/>
<path d="" fill="#FFFFFF" transform="translate(0,0)"/>
<path d="" fill="#0000FF" transform="translate(0,0)"/>
<path d="" fill="#FFFFFF" transform="translate(0,0)"/>
<path d="" fill="#000000" transform="translate(0,0)"/>
<path d="" fill="#FFFFFF" transform="translate(0,0)"/>
<path d="" fill="#000000" transform="translate(0,0)"/>
<path d="" fill="#FFFFFF" transform="translate(0,0)"/>
<path d="" fill="#FFFFFF" transform="translate(0,0)"/>
<path d="" fill="#FFFFFF" transform="translate(0,0)"/>
<path d="" fill="#FFFFFF" transform="translate(0,0)"/>
<path d="" fill="#FFFFFF" transform="translate(0,0)"/>
<path d="" fill="#8080FF" transform="translate(0,0)"/>
<path d="" fill="#FFFFFF" transform="translate(0,0)"/>
<path d="" fill="#FFFFFF" transform="translate(0,0)"/>
<path d="" fill="#FFFFFF" transform="translate(0,0)"/>
<path d="" fill="#FFFFFF" transform="translate(0,0)"/>
<path d="" fill="#FFFFFF" transform="translate(0,0)"/>
<path d="" fill="#000000" transform="translate(0,0)"/>
<path d="" fill="#FFFFFF" transform="translate(0,0)"/>
<path d="" fill="#FFFFFF" transform="translate(0,0)"/>
<path d="" fill="#FFFFFF" transform="translate(0,0)"/>
<path d="" fill="#FFFFFF" transform="translate(0,0)"/>
<path d="" fill="#FFFFFF" transform="translate(0,0)"/>
<path d="" fill="#FFFFFF" transform="translate(0,0)"/>
<path d="" fill="#FFFFFF" transform="translate(0,0)"/>
<path d="" fill="#FFFFFF" transform="translate(0,0)"/>
<path d="" fill="#FFFFFF" transform="translate(0,0)"/>
<path d="" fill="#FFFFFF" transform="translate(0,0)"/>
<path d="" fill="#FFFFFF" transform="translate(0,0)"/>
<path d="" fill="#FFFFFF" transform="translate(0,0)"/>
<path d="" fill="#FFFFFF" transform="translate(0,0)"/>
<path d="" fill="#0000FF" transform="translate(0,0)"/>
<path d="" fill="#FFFFFF" transform="translate(0,0)"/>
<path d="" fill="#FFFFFF" transform="translate(0,0)"/>
<path d="" fill="#FFFFFF" transform="translate(0,0)"/>
<path d="" fill="#FFFFFF" transform="translate(0,0)"/>
<path d="" fill="#FFFFFF" transform="translate(0,0)"/>
<path d="" fill="#FFFFFF" transform="translate(0,0)"/>
<path d="" fill="#FFFFFF" transform="translate(0,0)"/>
<path d="" fill="#FFFFFF" transform="translate(0,0)"/>
<path d="" fill="#000000" transform="translate(0,0)"/>
<path d="" fill="#FFFFFF" transform="translate(0,0)"/>
<path d="" fill="#FFFFFF" transform="translate(0,0)"/>
<path d="" fill="#FFFFFF" transform="translate(0,0)"/>
<path d="" fill="#FFFFFF" transform="translate(0,0)"/>
<path d="" fill="#FFFFFF" transform="translate(0,0)"/>
<path d="" fill="#0000FF" transform="translate(0,0)"/>
<path d="" fill="#000000" transform="translate(0,0)"/>
<path d="" fill="#0000FF" transform="translate(0,0)"/>
<path d="" fill="#000000" transform="translate(0,0)"/>
<path d="" fill="#FFFFFF" transform="translate(0,0)"/>
<path d="" fill="#FFFFFF" transform="translate(0,0)"/>
<path d="" fill="#0000FF" transform="translate(0,0)"/>
<path d="" fill="#FFFFFF" transform="translate(0,0)"/>
<path d="" fill="#FFFFFF" transform="translate(0,0)"/>
<path d="" fill="#FFFFFF" transform="translate(0,0)"/>
<path d="" fill="#FFFFFF" transform="translate(0,0)"/>
<path d="" fill="#FFFFFF" transform="translate(0,0)"/>
<path d="" fill="#FFFFFF" transform="translate(0,0)"/>
<path d="" fill="#FFFFFF" transform="translate(0,0)"/>
<path d="" fill="#FFFFFF" transform="translate(0,0)"/>
<path d="" fill="#FFFFFF" transform="translate(0,0)"/>
<path d="" fill="#FFFFFF" transform="translate(0,0)"/>
<path d="" fill="#000000" transform="translate(0,0)"/>
<path d="" fill="#000000" transform="translate(0,0)"/>
<path d="" fill="#FFFFFF" transform="translate(0,0)"/>
<path d="" fill="#FFFFFF" transform="translate(0,0)"/>
<path d="" fill="#FFFFFF" transform="translate(0,0)"/>
<path d="" fill="#FFFFFF" transform="translate(0,0)"/>
<path d="" fill="#000000" transform="translate(0,0)"/>
<path d="" fill="#FFFFFF" transform="translate(0,0)"/>
<path d="" fill="#FFFFFF" transform="translate(0,0)"/>
<path d="" fill="#FFFFFF" transform="translate(0,0)"/>
<path d="" fill="#FFFFFF" transform="translate(0,0)"/>
<path d="" fill="#FFFFFF" transform="translate(0,0)"/>
<path d="" fill="#FFFFFF" transform="translate(0,0)"/>
<path d="" fill="#000000" transform="translate(0,0)"/>
<path d="" fill="#FFFFFF" transform="translate(0,0)"/>
<path d="" fill="#FFFFFF" transform="translate(0,0)"/>
<path d="" fill="#FFFFFF" transform="translate(0,0)"/>
<path d="" fill="#FFFFFF" transform="translate(0,0)"/>
<path d="" fill="#FFFFFF" transform="translate(0,0)"/>
<path d="" fill="#FFFFFF" transform="translate(0,0)"/>
<path d="" fill="#000000" transform="translate(0,0)"/>
<path d="" fill="#FFFFFF" transform="translate(0,0)"/>
<path d="" fill="#FFFFFF" transform="translate(0,0)"/>
<path d="" fill="#FFFFFF" transform="translate(0,0)"/>
<path d="" fill="#FFFFFF" transform="translate(0,0)"/>
<path d="" fill="#FFFFFF" transform="translate(0,0)"/>
<path d="" fill="#FFFFFF" transform="translate(0,0)"/>
<path d="" fill="#FFFFFF" transform="translate(0,0)"/>
<path d="" fill="#FFFFFF" transform="translate(0,0)"/>
<path d="" fill="#000000" transform="translate(0,0)"/>
<path d="" fill="#FFFFFF" transform="translate(0,0)"/>
<path d="" fill="#FFFFFF" transform="translate(0,0)"/>
<path d="" fill="#FFFFFF" transform="translate(0,0)"/>
<path d="" fill="#FFFFFF" transform="translate(0,0)"/>
<path d="" fill="#FFFFFF" transform="translate(0,0)"/>
<path d="" fill="#FFFFFF" transform="translate(0,0)"/>
<path d="" fill="#FFFFFF" transform="translate(0,0)"/>
<path d="" fill="#FFFFFF" transform="translate(0,0)"/>
<path d="" fill="#FFFFFF" transform="translate(0,0)"/>
<path d="" fill="#000000" transform="translate(0,0)"/>
<path d="" fill="#000000" transform="translate(0,0)"/>
<path d="" fill="#FFFFFF" transform="translate(0,0)"/>
<path d="" fill="#FFFFFF" transform="translate(0,0)"/>
<path d="" fill="#FFFFFF" transform="translate(0,0)"/>
<path d="" fill="#000000" transform="translate(0,0)"/>
<path d="" fill="#000000" transform="translate(0,0)"/>
<path d="" fill="#FFFFFF" transform="translate(0,0)"/>
<path d="" fill="#FFFFFF" transform="translate(0,0)"/>
<path d="" fill="#FFFFFF" transform="translate(0,0)"/>
<path d="" fill="#808080" transform="translate(0,0)"/>
<path d="" fill="#FFFFFF" transform="translate(0,0)"/>
<path d="" fill="#FFFFFF" transform="translate(0,0)"/>
<path d="" fill="#FFFFFF" transform="translate(0,0)"/>
<path d="" fill="#FFFFFF" transform="translate(0,0)"/>
<path d="" fill="#000000" transform="translate(0,0)"/>
<path d="" fill="#FFFFFF" transform="translate(0,0)"/>
<path d="" fill="#FFFFFF" transform="translate(0,0)"/>
<path d="" fill="#000000" transform="translate(0,0)"/>
<path d="" fill="#FFFFFF" transform="translate(0,0)"/>
<path d="" fill="#FFFFFF" transform="translate(0,0)"/>
<path d="" fill="#000000" transform="translate(0,0)"/>
<path d="" fill="#FFFFFF" transform="translate(0,0)"/>
<path d="" fill="#FFFFFF" transform="translate(0,0)"/>
<path d="" fill="#FFFFFF" transform="translate(0,0)"/>
<path d="" fill="#000000" transform="translate(0,0)"/>
<path d="" fill="#000000" transform="translate(0,0)"/>
<path d="" fill="#FFFFFF" transform="translate(0,0)"/>
<path d="" fill="#000000" transform="translate(0,0)"/>
<path d="" fill="#000000" transform="translate(0,0)"/>
<path d="" fill="#000000" transform="translate(0,0)"/>
<path d="" fill="#000000" transform="translate(0,0)"/>
<path d="" fill="#000000" transform="translate(0,0)"/>
<path d="" fill="#FFFFFF" transform="translate(0,0)"/>
<path d="" fill="#FFFFFF" transform="translate(0,0)"/>
<path d="" fill="#000000" transform="translate(0,0)"/>
<path d="" fill="#FFFFFF" transform="translate(0,0)"/>
<path d="" fill="#FFFFFF" transform="translate(0,0)"/>
<path d="" fill="#808080" transform="translate(0,0)"/>
<path d="" fill="#FFFFFF" transform="translate(0,0)"/>
<path d="" fill="#0000FF" transform="translate(0,0)"/>
<path d="" fill="#FFFFFF" transform="translate(0,0)"/>
<path d="" fill="#FFFFFF" transform="translate(0,0)"/>
<path d="" fill="#FFFFFF" transform="translate(0,0)"/>
<path d="" fill="#FFFFFF" transform="translate(0,0)"/>
<path d="" fill="#FFFFFF" transform="translate(0,0)"/>
<path d="" fill="#FFFFFF" transform="translate(0,0)"/>
<path d="" fill="#FFFFFF" transform="translate(0,0)"/>
<path d="" fill="#000000" transform="translate(0,0)"/>
<path d="" fill="#000000" transform="translate(0,0)"/>
<path d="" fill="#FFFFFF" transform="translate(0,0)"/>
<path d="" fill="#0000FF" transform="translate(0,0)"/>
<path d="" fill="#FFFFFF" transform="translate(0,0)"/>
<path d="" fill="#FFFFFF" transform="translate(0,0)"/>
<path d="" fill="#FFFFFF" transform="translate(0,0)"/>
<path d="" fill="#000000" transform="translate(0,0)"/>
<path d="" fill="#FFFFFF" transform="translate(0,0)"/>
<path d="" fill="#000000" transform="translate(0,0)"/>
<path d="" fill="#FFFFFF" transform="translate(0,0)"/>
<path d="" fill="#FFFFFF" transform="translate(0,0)"/>
<path d="" fill="#000000" transform="translate(0,0)"/>
<path d="" fill="#FFFFFF" transform="translate(0,0)"/>
<path d="" fill="#FFFFFF" transform="translate(0,0)"/>
<path d="" fill="#000000" transform="translate(0,0)"/>
<path d="" fill="#FFFFFF" transform="translate(0,0)"/>
<path d="" fill="#FFFFFF" transform="translate(0,0)"/>
<path d="" fill="#000000" transform="translate(0,0)"/>
<path d="" fill="#000000" transform="translate(0,0)"/>
<path d="" fill="#000000" transform="translate(0,0)"/>
<path d="" fill="#FFFFFF" transform="translate(0,0)"/>
<path d="" fill="#000000" transform="translate(0,0)"/>
<path d="" fill="#FFFFFF" transform="translate(0,0)"/>
<path d="" fill="#000000" transform="translate(0,0)"/>
<path d="" fill="#000000" transform="translate(0,0)"/>
<path d="" fill="#FFFFFF" transform="translate(0,0)"/>
<path d="" fill="#FFFFFF" transform="translate(0,0)"/>
<path d="" fill="#000000" transform="translate(0,0)"/>
<path d="" fill="#000000" transform="translate(0,0)"/>
<path d="" fill="#000000" transform="translate(0,0)"/>
<path d="" fill="#FFFFFF" transform="translate(0,0)"/>
<path d="" fill="#FFFFFF" transform="translate(0,0)"/>
<path d="" fill="#FFFFFF" transform="translate(0,0)"/>
<path d="" fill="#FFFFFF" transform="translate(0,0)"/>
<path d="" fill="#FFFFFF" transform="translate(0,0)"/>
<path d="" fill="#FFFFFF" transform="translate(0,0)"/>
<path d="" fill="#FFFFFF" transform="translate(0,0)"/>
<path d="" fill="#FFFFFF" transform="translate(0,0)"/>
<path d="" fill="#000000" transform="translate(0,0)"/>
<path d="" fill="#FFFFFF" transform="translate(0,0)"/>
<path d="" fill="#FFFFFF" transform="translate(0,0)"/>
<path d="" fill="#FFFFFF" transform="translate(0,0)"/>
<path d="" fill="#FFFFFF" transform="translate(0,0)"/>
<path d="" fill="#FFFFFF" transform="translate(0,0)"/>
<path d="" fill="#FFFFFF" transform="translate(0,0)"/>
<path d="" fill="#FFFFFF" transform="translate(0,0)"/>
<path d="" fill="#FFFFFF" transform="translate(0,0)"/>
<path d="" fill="#FFFFFF" transform="translate(0,0)"/>
<path d="" fill="#000000" transform="translate(0,0)"/>
<path d="" fill="#FFFFFF" transform="translate(0,0)"/>
<path d="" fill="#000000" transform="translate(0,0)"/>
<path d="" fill="#FFFFFF" transform="translate(0,0)"/>
<path d="" fill="#FFFFFF" transform="translate(0,0)"/>
<path d="" fill="#FFFFFF" transform="translate(0,0)"/>
<path d="" fill="#FFFFFF" transform="translate(0,0)"/>
</svg>
