<?xml version="1.0" encoding="UTF-8" standalone="no"?>
<!DOCTYPE svg PUBLIC "-//W3C//DTD SVG 1.1//EN" "http://www.w3.org/Graphics/SVG/1.1/DTD/svg11.dtd">
<svg width="100%" height="100%" viewBox="0 0 1000 1000" version="1.1" xmlns="http://www.w3.org/2000/svg" xmlns:xlink="http://www.w3.org/1999/xlink" xml:space="preserve" xmlns:serif="http://www.serif.com/" style="fill-rule:evenodd;clip-rule:evenodd;stroke-linejoin:round;stroke-miterlimit:2;">
    <g transform="matrix(1,0,0,1,-1050,0)">
        <g id="Artboard1" transform="matrix(1,0,0,1,1050,0)">
            <rect x="0" y="0" width="1000" height="1000" style="fill:none;"/>
            <g>
                <path d="M500,83.401C564.598,83.401 617.044,135.846 617.044,200.445C617.044,265.043 564.598,317.488 500,317.488C435.402,317.488 382.956,265.043 382.956,200.445C382.956,135.846 435.402,83.401 500,83.401ZM500,118.737C454.904,118.737 418.292,155.349 418.292,200.445C418.292,245.54 454.904,282.152 500,282.152C545.096,282.152 581.708,245.54 581.708,200.445C581.708,155.349 545.096,118.737 500,118.737Z" style="fill:rgb(59,130,246);"/>
                <g transform="matrix(1,0,0,1.215278,0,-139.439012)">
                    <path d="M324.659,650.665C324.143,646.069 319.458,642.554 313.85,642.554L246.447,642.554C234.246,642.554 222.546,638.566 213.918,631.467C205.291,624.368 200.445,614.74 200.445,604.701L200.445,564.02C200.445,553.981 205.291,544.353 213.918,537.254C222.546,530.155 234.246,526.167 246.447,526.167L753.553,526.167C765.754,526.167 777.454,530.155 786.082,537.254C794.709,544.353 799.555,553.981 799.555,564.02L799.555,604.701C799.555,614.74 794.709,624.368 786.082,631.467C777.454,638.566 765.754,642.554 753.553,642.554L686.15,642.554C680.542,642.554 675.857,646.069 675.341,650.665C672.623,674.868 664.456,747.606 659.547,791.327C657.361,810.8 637.507,825.698 613.74,825.698C554.197,825.698 445.803,825.698 386.26,825.698C362.493,825.698 342.639,810.8 340.453,791.327C335.544,747.606 327.377,674.868 324.659,650.665ZM375.623,788.51C376.139,793.106 380.824,796.621 386.433,796.621C426.166,796.621 573.834,796.621 613.567,796.621C619.176,796.621 623.861,793.106 624.377,788.51C627.095,764.307 635.262,691.569 640.171,647.849C642.357,628.375 662.211,613.478 685.978,613.478C709.978,613.478 738.239,613.478 753.364,613.478C756.243,613.478 759.004,612.537 761.04,610.861C763.076,609.186 764.22,606.914 764.22,604.545C764.22,593.59 764.22,575.131 764.22,564.176C764.22,561.807 763.076,559.535 761.04,557.86C759.004,556.184 756.243,555.243 753.364,555.243C685.023,555.243 314.977,555.243 246.636,555.243C243.757,555.243 240.996,556.184 238.96,557.86C236.924,559.535 235.78,561.807 235.78,564.176C235.78,575.131 235.78,593.59 235.78,604.545C235.78,606.914 236.924,609.186 238.96,610.861C240.996,612.537 243.757,613.478 246.636,613.478C261.761,613.478 290.022,613.478 314.022,613.478C337.789,613.478 357.643,628.375 359.829,647.849C364.738,691.569 372.905,764.307 375.623,788.51Z" style="fill:rgb(59,130,246);"/>
                </g>
                <g transform="matrix(1,0,0,1.429878,0,-125.343539)">
                    <clipPath id="_clip1">
                        <rect x="333.805" y="287.614" width="332.39" height="161.769"/>
                    </clipPath>
                    <g clip-path="url(#_clip1)">
                        <path d="M545.115,287.614C613.281,293.327 666.195,333.954 666.195,383.156L666.195,495.505L333.805,495.505L333.805,383.156C333.805,333.954 386.719,293.327 454.885,287.614C454.885,287.614 480.777,327.056 493.331,346.18C494.527,348.002 497.132,349.17 500,349.17C502.868,349.17 505.473,348.002 506.669,346.18C519.223,327.056 545.115,287.614 545.115,287.614ZM565.139,316.34C565.139,316.34 552.584,335.176 538.498,356.309C531.523,366.774 516.509,373.464 500,373.464C483.491,373.464 468.477,366.774 461.502,356.309C447.416,335.176 434.861,316.34 434.861,316.34C396.441,326.63 369.141,352.684 369.141,383.156L369.141,470.793L630.859,470.793L630.859,383.156C630.859,352.684 603.559,326.63 565.139,316.34Z" style="fill:rgb(59,130,246);"/>
                    </g>
                </g>
            </g>
        </g>
    </g>
</svg>
