<?xml version="1.0" encoding="UTF-8"?>
<svg version="1.1" xmlns="http://www.w3.org/2000/svg" width="500" height="500">
<path d="M0 0 C1.2299313 -0.00453111 2.4598626 -0.00906223 3.72706455 -0.01373065 C7.11080704 -0.02413717 10.49433554 -0.02571149 13.87807858 -0.02334189 C17.5394923 -0.0229313 21.20087511 -0.03399596 24.86227417 -0.04345703 C32.02502509 -0.06001675 39.18774308 -0.06556432 46.35051156 -0.06668179 C52.17866545 -0.0676348 58.00680855 -0.07175773 63.83495903 -0.07808304 C80.39072652 -0.09568296 96.94646816 -0.10492405 113.50224508 -0.10342209 C114.83893139 -0.10330222 114.83893139 -0.10330222 116.20262146 -0.10317993 C117.09484502 -0.10309817 117.98706857 -0.10301641 118.90632921 -0.10293217 C133.35266774 -0.10211998 147.79890183 -0.12124403 162.24521018 -0.14945666 C177.10983587 -0.17825507 191.97441075 -0.19199309 206.83906502 -0.19026911 C215.1718032 -0.18960753 223.50443194 -0.19499732 231.83714485 -0.21662521 C238.93418975 -0.23492901 246.03107561 -0.23910962 253.12813402 -0.22560637 C256.74160222 -0.21912225 260.35476615 -0.21879175 263.9682045 -0.23631287 C289.76662293 -0.35344432 312.14318898 2.93396484 334.34495544 16.63070679 C337.12231102 18.15189893 339.2184949 18.86869236 342.33323669 19.26742554 C342.00323669 20.25742554 341.67323669 21.24742554 341.33323669 22.26742554 C341.91847107 22.53555054 342.50370544 22.80367554 343.10667419 23.07992554 C347.03050972 25.17263782 350.08637544 28.26086554 353.33323669 31.26742554 C354.13374451 32.00219116 354.93425232 32.73695679 355.75901794 33.49398804 C362.37414269 39.81076346 367.42223704 46.61234153 372.33323669 54.26742554 C372.74186951 54.89133179 373.15050232 55.51523804 373.57151794 56.15805054 C383.83551903 72.88457082 388.65387964 92.50523825 388.60066223 111.93418884 C388.60519334 113.16412014 388.60972446 114.39405145 388.61439288 115.66125339 C388.6247994 119.04499588 388.62637372 122.42852438 388.62400413 125.81226742 C388.62359353 129.47368114 388.63465819 133.13506395 388.64411926 136.79646301 C388.66067899 143.95921394 388.66622656 151.12193193 388.66734402 158.2847004 C388.66829704 164.11285429 388.67241996 169.9409974 388.67874527 175.76914787 C388.6963452 192.32491536 388.70558628 208.88065701 388.70408432 225.43643392 C388.70400441 226.32755813 388.7039245 227.21868233 388.70384216 228.1368103 C388.7037604 229.02903386 388.70367864 229.92125742 388.7035944 230.84051805 C388.70278221 245.28685658 388.72190626 259.73309068 388.7501189 274.17939902 C388.7789173 289.04402471 388.79265532 303.90859959 388.79093134 318.77325386 C388.79026976 327.10599204 388.79565955 335.43862078 388.81728745 343.77133369 C388.83559125 350.86837859 388.83977185 357.96526445 388.8262686 365.06232286 C388.81978449 368.67579107 388.81945399 372.28895499 388.8369751 375.90239334 C388.92017606 394.19377421 388.112105 410.88426545 381.20823669 428.01742554 C379.46361378 432.40134979 377.78063164 436.77360885 376.33323669 441.26742554 C375.67323669 441.26742554 375.01323669 441.26742554 374.33323669 441.26742554 C374.08960388 441.96094116 373.84597107 442.65445679 373.59495544 443.36898804 C366.15871414 460.45162286 349.87478381 474.69914208 334.33323669 484.26742554 C333.6101532 484.73873901 332.8870697 485.21005249 332.14207458 485.69564819 C325.82484473 489.6989321 319.50455059 492.25202914 312.39573669 494.51742554 C311.38833435 494.85515991 310.38093201 495.19289429 309.34300232 495.54086304 C298.4192572 499.10952061 288.14907897 500.56630282 276.66647339 500.53485107 C275.43654209 500.53938219 274.20661079 500.5439133 272.93940884 500.54858172 C269.55566635 500.55898824 266.17213785 500.56056256 262.78839481 500.55819297 C259.12698109 500.55778237 255.46559828 500.56884703 251.80419922 500.57830811 C244.6414483 500.59486783 237.4787303 500.6004154 230.31596183 500.60153286 C224.48780794 500.60248588 218.65966483 500.6066088 212.83151436 500.61293411 C196.27574687 500.63053404 179.72000523 500.63977512 163.16422831 500.63827316 C161.827542 500.6381533 161.827542 500.6381533 160.46385193 500.63803101 C159.12551659 500.63790836 159.12551659 500.63790836 157.76014418 500.63778324 C143.31380565 500.63697105 128.86757156 500.6560951 114.42126321 500.68430774 C99.55663752 500.71310614 84.69206264 500.72684417 69.82740837 500.72512019 C61.49467019 500.72445861 53.16204145 500.7298484 44.82932854 500.75147629 C37.73228364 500.76978009 30.63539778 500.7739607 23.53833937 500.76045744 C19.92487117 500.75397333 16.31170724 500.75364283 12.69826889 500.77116394 C-19.48473311 500.91729808 -49.29883877 494.70695316 -73.66676331 472.26742554 C-74.18867249 471.78789429 -74.71058167 471.30836304 -75.24830627 470.81430054 C-90.29522283 456.83112904 -100.46395834 440.38106211 -107.04176331 420.95492554 C-107.28048157 420.25085571 -107.51919983 419.54678589 -107.76515198 418.82138062 C-110.9734447 408.81823718 -111.96286735 399.07079418 -111.93418884 388.60066223 C-111.93871996 387.37073093 -111.94325107 386.14079963 -111.94791949 384.87359768 C-111.95832601 381.48985519 -111.95990033 378.10632669 -111.95753074 374.72258365 C-111.95712014 371.06116993 -111.9681848 367.39978712 -111.97764587 363.73838806 C-111.9942056 356.57563714 -111.99975317 349.41291915 -112.00087063 342.25015067 C-112.00182365 336.42199678 -112.00594657 330.59385368 -112.01227188 324.7657032 C-112.02987181 308.20993571 -112.03911289 291.65419407 -112.03761093 275.09841716 C-112.03753102 274.20729295 -112.03745111 273.31616874 -112.03736877 272.39804077 C-112.03728701 271.50581721 -112.03720525 270.61359366 -112.03712101 269.69433302 C-112.03630882 255.24799449 -112.05543287 240.8017604 -112.08364551 226.35545205 C-112.11244391 211.49082636 -112.12618194 196.62625148 -112.12445796 181.76159722 C-112.12379637 173.42885903 -112.12918616 165.09623029 -112.15081406 156.76351738 C-112.16911786 149.66647248 -112.17329847 142.56958662 -112.15979521 135.47252821 C-112.1533111 131.85906001 -112.1529806 128.24589608 -112.17050171 124.63245773 C-112.31663585 92.44945573 -106.10629093 62.63535007 -83.66676331 38.26742554 C-83.18723206 37.74551636 -82.70770081 37.22360718 -82.21363831 36.68588257 C-68.23046681 21.63896601 -51.78039988 11.47023051 -32.35426331 4.89242554 C-31.65019348 4.65370728 -30.94612366 4.41498901 -30.22071838 4.16903687 C-20.21757495 0.96074414 -10.47013195 -0.02867851 0 0 Z " fill="#59A7F6" transform="translate(111.66676330566406,-0.267425537109375)"/>
<path d="M0 0 C12.7594477 10.49021675 22.73294222 23.10027149 24.50390625 40.05859375 C25.46310765 59.41781843 23.25577439 76.59035133 10.50390625 92.05859375 C7.60027739 95.16598603 4.60426043 98.14805717 1.50390625 101.05859375 C4.11646078 102.43423087 6.38389095 103.32258916 9.25390625 104.18359375 C20.80118709 107.98179026 31.53173124 113.85355638 40.50390625 122.05859375 C41.45136719 122.88617188 41.45136719 122.88617188 42.41796875 123.73046875 C52.296579 132.86927118 58.47570994 145.67851788 59.93765259 159.01559448 C60.07656658 163.15359746 60.06950492 167.26037195 59.9921875 171.3984375 C59.98282868 172.90156358 59.97572716 174.40470521 59.9707489 175.90785217 C59.95191942 179.80927807 59.90303728 183.70973016 59.847229 187.61077881 C59.7955072 191.61343217 59.77312353 195.61624736 59.74804688 199.61914062 C59.69488595 207.43272923 59.6098786 215.24552359 59.50390625 223.05859375 C60.20246231 223.04749069 60.90101837 223.03638763 61.6207428 223.02494812 C68.22598664 222.92447883 74.83101514 222.84849437 81.43685246 222.79953289 C84.83250264 222.77351394 88.22751791 222.7382612 91.62280273 222.68139648 C95.53231018 222.61633436 99.44156666 222.59234935 103.3515625 222.5703125 C105.16757713 222.53160286 105.16757713 222.53160286 107.02027893 222.49211121 C114.22752961 222.48972498 118.25172236 222.95945126 123.50390625 228.05859375 C126.30489066 231.91865877 126.87894992 234.59075955 126.8762207 239.33007812 C126.88244949 240.57486938 126.88867828 241.81966064 126.89509583 243.10217285 C126.88640715 244.45223391 126.8770891 245.80229104 126.8671875 247.15234375 C126.86666839 248.54569498 126.86718806 249.93904695 126.86869812 251.33239746 C126.86860858 254.24758896 126.85821732 257.16250285 126.84008789 260.07763672 C126.81740121 263.80669545 126.81685857 267.53534894 126.82360554 271.2644577 C126.82695355 274.14015275 126.8202998 277.01575609 126.8104763 279.89143372 C126.80663836 281.26609314 126.80547024 282.64076278 126.80706215 284.01542664 C126.80743469 285.9393443 126.79329646 287.86324808 126.77856445 289.78710938 C126.77395706 290.88011353 126.76934967 291.97311768 126.76460266 293.09924316 C126.24071567 299.04625744 123.93364329 302.15620635 119.50390625 306.05859375 C116.23913858 308.09249777 113.72649789 308.30283966 109.90917969 308.28564453 C108.22788971 308.28541794 108.22788971 308.28541794 106.51263428 308.28518677 C105.30834778 308.2748642 104.10406128 308.26454163 102.86328125 308.25390625 C101.00730316 308.24966141 101.00730316 308.24966141 99.11383057 308.24533081 C95.83239084 308.23603575 92.55114871 308.2180808 89.26977539 308.19592285 C85.91815003 308.17542423 82.56651618 308.16649099 79.21484375 308.15625 C72.64445402 308.13419405 66.07419629 308.10071957 59.50390625 308.05859375 C59.50857407 308.87585434 59.51324188 309.69311493 59.51805115 310.53514099 C59.52349693 312.14861168 59.52349693 312.14861168 59.52905273 313.79467773 C59.53372055 314.85943832 59.53838837 315.92419891 59.54319763 317.02122498 C59.49425167 320.80492803 59.08885688 324.37241511 58.56640625 328.12109375 C57.62814529 335.25778738 57.13590437 342.35994086 56.84594727 349.55102539 C56.6524999 354.11845057 56.151084 358.5283495 55.50390625 363.05859375 C55.29870082 366.01453753 55.18604627 368.97311372 55.06640625 371.93359375 C54.74306191 378.97318372 54.14388818 385.91481579 53.23022461 392.90136719 C52.61898001 397.67211164 52.32719994 402.37733244 52.12890625 407.18359375 C51.78344775 412.9946992 51.06396432 416.45145977 47.50390625 421.05859375 C47.05015625 421.65671875 46.59640625 422.25484375 46.12890625 422.87109375 C41.87266591 425.98142323 37.040809 426.30915468 31.93162537 426.31256104 C30.6264093 426.31820068 29.32119324 426.32384033 27.97642517 426.32965088 C26.54214422 426.32576283 25.10786381 426.32166653 23.67358398 426.31738281 C22.15373568 426.3200947 20.6338887 426.32365674 19.11404419 426.32800293 C14.99639359 426.33710495 10.87884344 426.33359192 6.76119113 426.32724476 C2.44870661 426.32217437 -1.86376941 426.32687902 -6.17625427 426.33001709 C-13.41659079 426.33365331 -20.65688648 426.32886625 -27.8972168 426.31933594 C-36.26560027 426.30844794 -44.6338863 426.31198085 -53.00226742 426.32298875 C-60.19137517 426.33206651 -67.38045361 426.33334463 -74.56956524 426.32811141 C-78.86154874 426.32499494 -83.15348644 426.32457361 -87.445467 426.33118439 C-91.47972167 426.33696447 -95.51385077 426.33294883 -99.54809189 426.32139587 C-101.02793481 426.31875301 -102.50778832 426.31950801 -103.98762703 426.3239212 C-106.00867966 426.32939245 -108.02975542 426.32131257 -110.05079651 426.31256104 C-111.18141793 426.31180698 -112.31203936 426.31105293 -113.47692204 426.31027603 C-118.01789367 425.93173443 -120.7035974 424.72207906 -124.18359375 421.80859375 C-132.89373164 411.45059193 -130.97494908 390.06346617 -131.75814819 377.02770996 C-132.63676853 362.47155844 -133.52477889 347.9589458 -135.58178711 333.51196289 C-136.72949735 325.02630674 -136.61473039 316.60294254 -136.49609375 308.05859375 C-137.19687042 308.0674762 -137.89764709 308.07635864 -138.61965942 308.08551025 C-145.23997662 308.16582478 -151.86015688 308.22664326 -158.48085213 308.26584244 C-161.88425693 308.28667321 -165.2872575 308.31490633 -168.69042969 308.36035156 C-172.60737181 308.41232725 -176.5241531 308.43157644 -180.44140625 308.44921875 C-181.65724396 308.46986389 -182.87308167 308.49050903 -184.12576294 308.51177979 C-190.5574951 308.51348324 -194.63244686 308.44776372 -199.49609375 304.05859375 C-200.09421875 303.54296875 -200.69234375 303.02734375 -201.30859375 302.49609375 C-203.94725093 299.30192979 -203.6386561 295.80487245 -203.6730957 291.86230469 C-203.68593094 290.58377625 -203.69876617 289.3052478 -203.71199036 287.98797607 C-203.72015908 286.58964425 -203.72760256 285.19130803 -203.734375 283.79296875 C-203.73845053 283.08734047 -203.74252605 282.38171219 -203.74672508 281.65470123 C-203.76757072 277.91840408 -203.78187782 274.18214347 -203.79125977 270.44580078 C-203.80230963 266.59791196 -203.83669654 262.75060375 -203.87643147 258.90291977 C-203.90265272 255.93451913 -203.91095652 252.96625558 -203.91454124 249.99774933 C-203.91939454 248.58004087 -203.93097266 247.16233801 -203.94957924 245.74474335 C-204.12304381 231.6506654 -204.12304381 231.6506654 -199.49609375 226.05859375 C-195.75884859 223.34534925 -193.19297388 222.68802591 -188.60424805 222.71801758 C-187.44342209 222.71824417 -186.28259613 222.71847076 -185.08659363 222.71870422 C-183.84372086 222.73418808 -182.60084808 222.74967194 -181.3203125 222.765625 C-179.3998687 222.77199226 -179.3998687 222.77199226 -177.44062805 222.77848816 C-174.04896242 222.78990238 -170.65768668 222.8193392 -167.26617432 222.8526001 C-163.80055006 222.8833754 -160.33486236 222.89700936 -156.86914062 222.91210938 C-150.07795646 222.94517183 -143.28706045 222.99536706 -136.49609375 223.05859375 C-136.50719681 222.25252182 -136.51829987 221.44644989 -136.52973938 220.61595154 C-136.63066177 212.95356629 -136.70641931 205.29151125 -136.75515461 197.62863064 C-136.7810539 193.69068581 -136.81608208 189.75329813 -136.87329102 185.81567383 C-136.9283261 182.00304395 -136.95766137 178.19094383 -136.97047997 174.37794685 C-136.97959375 172.93610372 -136.99738341 171.49428375 -137.02474403 170.05267143 C-137.36109223 151.56556047 -131.31611545 136.73417122 -118.65454102 123.24633789 C-107.73065269 111.95495122 -93.48447117 105.37342968 -78.49609375 101.05859375 C-79.00398438 100.64609375 -79.511875 100.23359375 -80.03515625 99.80859375 C-94.54473057 87.63576735 -100.58824584 72.5859168 -102.49609375 54.05859375 C-103.6866036 40.05984001 -99.26094114 24.09567447 -90.3515625 13.125 C-67.09960989 -12.77033249 -29.80160257 -22.24357174 0 0 Z " fill="#FBFDFE" transform="translate(288.49609375,41.94140625)"/>
<path d="M0 0 C95.04 0 190.08 0 288 0 C288 13.86 288 27.72 288 42 C283.95492188 42.01417969 279.90984375 42.02835937 275.7421875 42.04296875 C272.50649112 42.06823262 269.27092549 42.09846282 266.03530884 42.13204193 C262.6253372 42.1660729 259.21581421 42.19145408 255.80566406 42.19555664 C251.88826701 42.2006737 247.9718132 42.24583517 244.0546875 42.29296875 C242.83884979 42.2890361 241.62301208 42.28510345 240.37033081 42.28105164 C233.38002215 42.26682417 233.38002215 42.26682417 227.30908203 45.29418945 C224.20464315 48.93200887 222.8146817 51.6487581 222.45336914 56.41259766 C222.38300949 57.28481461 222.31264984 58.15703156 222.24015808 59.05567932 C222.17250748 59.99894577 222.10485687 60.94221222 222.03515625 61.9140625 C221.957314 62.90417831 221.87947174 63.89429413 221.79927063 64.91441345 C221.54625011 68.15074776 221.30450565 71.38782515 221.0625 74.625 C220.80210613 77.983664 220.5387429 81.34208737 220.27532959 84.70051575 C220.0994261 86.94652304 219.92450112 89.19260718 219.75054932 91.43876648 C219.02287711 100.81936711 218.22094635 110.19190857 217.375 119.5625 C216.19011098 132.70399637 215.09584248 145.84989026 214 159 C167.8 159 121.6 159 74 159 C73.34 150.42 72.68 141.84 72 133 C71.32729328 125.16039108 71.32729328 125.16039108 70.62231445 117.32397461 C70.43098722 115.24161652 70.24371631 113.15891585 70.05664062 111.07617188 C69.93252391 109.71352049 69.8081845 108.35088937 69.68359375 106.98828125 C69.57587646 105.80790283 69.46815918 104.62752441 69.35717773 103.41137695 C69.11221903 101.07179532 68.8193581 98.73688043 68.48632812 96.40820312 C68.06075012 93.42573876 67.75573993 90.48359266 67.53515625 87.48046875 C67.45869873 86.46629883 67.38224121 85.45212891 67.3034668 84.40722656 C67.22394775 83.3447168 67.14442871 82.28220703 67.0625 81.1875 C66.79566726 77.84854435 66.52456527 74.50995472 66.25292969 71.17138672 C66.09317886 69.16833335 65.93938786 67.16478764 65.79394531 65.16064453 C65.61277352 62.68815541 65.40404945 60.21960189 65.1875 57.75 C65.11897827 56.67141724 65.11897827 56.67141724 65.04907227 55.57104492 C64.70369768 51.96007305 64.06036304 50.0767672 61.80078125 47.203125 C54.92432648 41.79403087 49.30938102 41.53635574 40.8203125 41.48828125 C39.06846146 41.46135445 39.06846146 41.46135445 37.28121948 41.43388367 C33.56251603 41.37983772 29.84394054 41.34590222 26.125 41.3125 C23.59894055 41.279322 21.07289797 41.2448319 18.546875 41.20898438 C12.36456547 41.12165214 6.18283532 41.06153131 0 41 C0 27.47 0 13.94 0 0 Z " fill="#59A7F6" transform="translate(106,287)"/>
<path d="M0 0 C13.7499281 2.64421694 26.82000689 10.46247478 34.82421875 22.07421875 C47.95951029 43.58816801 41 81.48381241 41 100 C-10.48 100 -61.96 100 -115 100 C-115 28.8556701 -115 28.8556701 -103.10546875 14.75390625 C-98.58636505 10.32120988 -93.39602227 7.37614766 -87.8125 4.5 C-87.13517822 4.14905273 -86.45785645 3.79810547 -85.76000977 3.43652344 C-81.6751972 1.45048186 -78.64214872 0.59570711 -74 1 C-68.73661548 10.43880688 -64.07923624 20.05884674 -59.65625 29.91870117 C-56.299918 37.38796866 -52.787483 44.73896976 -49 52 C-48.40058594 53.15435547 -48.40058594 53.15435547 -47.7890625 54.33203125 C-46.09462562 57.4597324 -45.02435006 58.98376663 -42 61 C-35.19146648 61.45864978 -35.19146648 61.45864978 -29 59 C-27.45319862 56.65636155 -26.21343655 54.50437928 -25 52 C-24.69884277 51.40203613 -24.39768555 50.80407227 -24.08740234 50.18798828 C-21.55711422 45.15504388 -19.10182458 40.0895145 -16.6875 35 C-16.29723633 34.17838379 -15.90697266 33.35676758 -15.50488281 32.51025391 C-12.98491581 27.17306665 -10.5781521 21.79825548 -8.25 16.375 C-5.82175661 10.71885073 -3.17994681 5.2754878 0 0 Z " fill="#5AA7F6" transform="translate(287,165)"/>
<path d="M0 0 C3.46686291 1.82010303 6.74676933 3.82341991 10 6 C11.36125 6.8971875 11.36125 6.8971875 12.75 7.8125 C17.98657775 12.90361725 21.4413478 19.21957166 24 26 C24.34933594 26.92039062 24.69867188 27.84078125 25.05859375 28.7890625 C27.69803095 37.79162423 26.68445961 48.41520911 23 57 C19.05572137 64.13345888 14.66093102 70.24673419 8 75 C7.071875 75.721875 6.14375 76.44375 5.1875 77.1875 C-5.40976928 83.21339822 -18.80584561 84.01275626 -30.578125 81.12109375 C-43.23069911 76.20605535 -51.90850422 67.45891367 -57.4375 55.125 C-61.06431324 44.03956648 -60.80221656 29.97716134 -55.5390625 19.5390625 C-48.84032033 8.48783812 -40.63432719 1.35881909 -28 -2 C-19.38334128 -4.87221957 -8.20989517 -3.68076967 0 0 Z " fill="#5AA7F6" transform="translate(267,54)"/>
<path d="M0 0 C-0.27199219 0.67675781 -0.54398437 1.35351562 -0.82421875 2.05078125 C-1.66897306 4.16968326 -2.50373636 6.29257863 -3.33203125 8.41796875 C-5.90811425 14.99819967 -8.57581717 21.42253086 -11.83203125 27.703125 C-13.711142 31.39849999 -15.35519135 35.19580568 -17 39 C-17.66 39 -18.32 39 -19 39 C-19.27972656 38.30777344 -19.55945313 37.61554688 -19.84765625 36.90234375 C-22.27909939 30.96837158 -24.83442037 25.11461669 -27.5625 19.3125 C-28.01036865 18.35972168 -28.01036865 18.35972168 -28.46728516 17.38769531 C-28.90500244 16.45715332 -28.90500244 16.45715332 -29.3515625 15.5078125 C-30.72994718 12.57466215 -32.09928809 9.63915889 -33.4375 6.6875 C-33.74558594 6.01074219 -34.05367187 5.33398438 -34.37109375 4.63671875 C-35 3 -35 3 -35 1 C-34.14245117 1.00523682 -33.28490234 1.01047363 -32.40136719 1.01586914 C-29.21077727 1.03294152 -26.02021069 1.04546505 -22.82958984 1.05493164 C-21.45035027 1.05995118 -20.07111598 1.06676819 -18.69189453 1.07543945 C-16.70607817 1.0876092 -14.72022251 1.09271633 -12.734375 1.09765625 C-11.54038086 1.10289307 -10.34638672 1.10812988 -9.11621094 1.11352539 C-5.9709915 0.9989432 -3.09671202 0 0 0 Z " fill="#5CA8F6" transform="translate(268,156)"/>
<path d="M0 0 C0.66 0 1.32 0 2 0 C1.67 0.66 1.34 1.32 1 2 C0.67 1.34 0.34 0.68 0 0 Z " fill="#AAAAAA" transform="translate(451,13)"/>
<path d="M0 0 C0.99 0.495 0.99 0.495 2 1 C1.01 1.495 1.01 1.495 0 2 C0 1.34 0 0.68 0 0 Z " fill="#AAAAAA" transform="translate(452,1)"/>
<path d="M0 0 C2 1 2 1 2 1 Z " fill="#7F7F7F" transform="translate(49,494)"/>
<path d="M0 0 C2 1 2 1 2 1 Z " fill="#BFBFBF" transform="translate(486,481)"/>
<path d="" fill="#000000" transform="translate(0,0)"/>
<path d="" fill="#000000" transform="translate(0,0)"/>
<path d="M0 0 C2 1 2 1 2 1 Z " fill="#BFBFBF" transform="translate(486,35)"/>
<path d="M0 0 C2 1 2 1 2 1 Z " fill="#BFBFBF" transform="translate(486,29)"/>
<path d="M0 0 C2 1 2 1 2 1 Z " fill="#7F7F7F" transform="translate(49,13)"/>
<path d="M0 0 C2 1 2 1 2 1 Z " fill="#40BFBF" transform="translate(49,7)"/>
<path d="" fill="#000000" transform="translate(0,0)"/>
<path d="" fill="#FFFFFF" transform="translate(0,0)"/>
<path d="" fill="#808080" transform="translate(0,0)"/>
<path d="" fill="#FFFFFF" transform="translate(0,0)"/>
<path d="" fill="#000000" transform="translate(0,0)"/>
<path d="" fill="#FFFFFF" transform="translate(0,0)"/>
<path d="" fill="#FFFFFF" transform="translate(0,0)"/>
<path d="" fill="#FFFFFF" transform="translate(0,0)"/>
<path d="" fill="#FFFFFF" transform="translate(0,0)"/>
<path d="" fill="#FFFFFF" transform="translate(0,0)"/>
<path d="" fill="#FFFFFF" transform="translate(0,0)"/>
<path d="" fill="#FFFFFF" transform="translate(0,0)"/>
<path d="" fill="#FFFFFF" transform="translate(0,0)"/>
<path d="" fill="#000000" transform="translate(0,0)"/>
<path d="" fill="#000000" transform="translate(0,0)"/>
<path d="" fill="#FFFFFF" transform="translate(0,0)"/>
<path d="" fill="#000000" transform="translate(0,0)"/>
<path d="" fill="#00FFFF" transform="translate(0,0)"/>
<path d="" fill="#0000FF" transform="translate(0,0)"/>
<path d="" fill="#FFFFFF" transform="translate(0,0)"/>
<path d="" fill="#FFFFFF" transform="translate(0,0)"/>
<path d="" fill="#FFFFFF" transform="translate(0,0)"/>
<path d="" fill="#FFFFFF" transform="translate(0,0)"/>
<path d="" fill="#000000" transform="translate(0,0)"/>
<path d="" fill="#FFFFFF" transform="translate(0,0)"/>
<path d="" fill="#FFFFFF" transform="translate(0,0)"/>
<path d="" fill="#FFFFFF" transform="translate(0,0)"/>
<path d="" fill="#FFFFFF" transform="translate(0,0)"/>
<path d="" fill="#FFFFFF" transform="translate(0,0)"/>
<path d="" fill="#FFFFFF" transform="translate(0,0)"/>
<path d="" fill="#FFFFFF" transform="translate(0,0)"/>
<path d="" fill="#FFFFFF" transform="translate(0,0)"/>
<path d="" fill="#FFFFFF" transform="translate(0,0)"/>
<path d="" fill="#FFFFFF" transform="translate(0,0)"/>
<path d="" fill="#FFFFFF" transform="translate(0,0)"/>
<path d="" fill="#FFFFFF" transform="translate(0,0)"/>
<path d="" fill="#FFFFFF" transform="translate(0,0)"/>
<path d="" fill="#FFFFFF" transform="translate(0,0)"/>
<path d="" fill="#FFFFFF" transform="translate(0,0)"/>
<path d="" fill="#FFFFFF" transform="translate(0,0)"/>
<path d="" fill="#000000" transform="translate(0,0)"/>
<path d="" fill="#FFFFFF" transform="translate(0,0)"/>
<path d="" fill="#FFFFFF" transform="translate(0,0)"/>
<path d="" fill="#000000" transform="translate(0,0)"/>
<path d="" fill="#808080" transform="translate(0,0)"/>
<path d="" fill="#FFFFFF" transform="translate(0,0)"/>
<path d="" fill="#FFFFFF" transform="translate(0,0)"/>
<path d="" fill="#FFFFFF" transform="translate(0,0)"/>
<path d="" fill="#FFFFFF" transform="translate(0,0)"/>
<path d="" fill="#FFFFFF" transform="translate(0,0)"/>
<path d="" fill="#FFFFFF" transform="translate(0,0)"/>
</svg>
